<svg width="20" height="22" viewBox="0 0 20 22" fill="none" xmlns="http://www.w3.org/2000/svg">
<path d="M10.0475 3.69231V6.38462H12.6864C13.2083 6.38462 13.7185 6.22674 14.1525 5.93091C14.5864 5.63503 14.9247 5.21456 15.1244 4.72258C15.3241 4.23068 15.3764 3.68933 15.2746 3.16708C15.1728 2.64483 14.9214 2.16511 14.5524 1.78856C14.1833 1.41205 13.7131 1.15564 13.2012 1.05174C12.6893 0.947852 12.1587 1.00115 11.6766 1.20495C11.1943 1.4087 10.7822 1.7538 10.4922 2.19652C10.2022 2.63929 10.0475 3.1598 10.0475 3.69231Z" stroke="#8696BB" stroke-width="1.5" stroke-miterlimit="10" stroke-linecap="round"/>
<path d="M10.0478 3.69231V6.38462H7.40894C6.887 6.38462 6.37682 6.22674 5.94284 5.93091C5.5089 5.63503 5.1706 5.21456 4.97093 4.72258C4.77118 4.23068 4.71889 3.68933 4.82072 3.16708C4.92256 2.64483 5.17388 2.16511 5.54296 1.78856C5.912 1.41205 6.3822 1.15564 6.89409 1.05174C7.40603 0.947852 7.93663 1.00115 8.41877 1.20495C8.90099 1.4087 9.31312 1.7538 9.60308 2.19652C9.89305 2.63929 10.0478 3.1598 10.0478 3.69231Z" stroke="#8696BB" stroke-width="1.5" stroke-miterlimit="10" stroke-linecap="round"/>
<path d="M17.5873 6.38452H2.50794C1.67512 6.38452 1 7.0733 1 7.92298V10.2307C1 11.0803 1.67512 11.7691 2.50794 11.7691H17.5873C18.4201 11.7691 19.0952 11.0804 19.0952 10.2307V7.92298C19.0952 7.0733 18.4201 6.38452 17.5873 6.38452Z" stroke="#8696BB" stroke-width="1.5" stroke-linecap="round" stroke-linejoin="round"/>
<path d="M17.5871 11.769V18.6921C17.5871 19.3042 17.3488 19.8911 16.9247 20.3239C16.5005 20.7567 15.9252 20.9998 15.3252 20.9998H4.76972C4.16982 20.9998 3.59451 20.7567 3.17027 20.3239C2.74608 19.8911 2.50781 19.3042 2.50781 18.6921V11.769" stroke="#8696BB" stroke-width="1.5" stroke-linecap="round" stroke-linejoin="round"/>
<path d="M10.0475 6.38452V20.9999" stroke="#8696BB" stroke-width="1.5" stroke-linecap="round" stroke-linejoin="round"/>
</svg>
